<?xml version="1.0" encoding="UTF-8" standalone="no"?>
<svg
   xmlns:dc="http://purl.org/dc/elements/1.1/"
   xmlns:cc="http://creativecommons.org/ns#"
   xmlns:rdf="http://www.w3.org/1999/02/22-rdf-syntax-ns#"
   xmlns:svg="http://www.w3.org/2000/svg"
   xmlns="http://www.w3.org/2000/svg"
   xmlns:sodipodi="http://sodipodi.sourceforge.net/DTD/sodipodi-0.dtd"
   xmlns:inkscape="http://www.inkscape.org/namespaces/inkscape"
   width="210mm"
   height="297mm"
   viewBox="0 0 210 297"
   version="1.1"
   id="svg8"
   inkscape:version="1.0.2-2 (e86c870879, 2021-01-15)"
   sodipodi:docname="desenhando.svg"
   inkscape:export-filename="C:\Users\Rafaella Freire\Desktop\desenhos\monstrossa.png"
   inkscape:export-xdpi="96"
   inkscape:export-ydpi="96">
  <defs
     id="defs2">
    <marker
       style="overflow:visible"
       id="marker1255"
       refX="0.0"
       refY="0.0"
       orient="auto"
       inkscape:stockid="Arrow1Lstart"
       inkscape:isstock="true">
      <path
         transform="scale(0.8) translate(12.5,0)"
         style="fill-rule:evenodd;stroke:#000000;stroke-width:1pt;stroke-opacity:1;fill:#000000;fill-opacity:0.630996"
         d="M 0.0,0.0 L 5.0,-5.0 L -12.5,0.0 L 5.0,5.0 L 0.0,0.0 z "
         id="path1253" />
    </marker>
    <marker
       style="overflow:visible"
       id="marker1179"
       refX="0.0"
       refY="0.0"
       orient="auto"
       inkscape:stockid="Arrow1Lstart"
       inkscape:isstock="true">
      <path
         transform="scale(0.8) translate(12.5,0)"
         style="fill-rule:evenodd;stroke:#000000;stroke-width:1pt;stroke-opacity:1;fill:#000000;fill-opacity:0.630996"
         d="M 0.0,0.0 L 5.0,-5.0 L -12.5,0.0 L 5.0,5.0 L 0.0,0.0 z "
         id="path1177" />
    </marker>
    <marker
       style="overflow:visible"
       id="Arrow1Lstart"
       refX="0.0"
       refY="0.0"
       orient="auto"
       inkscape:stockid="Arrow1Lstart"
       inkscape:isstock="true">
      <path
         transform="scale(0.8) translate(12.5,0)"
         style="fill-rule:evenodd;stroke:#000000;stroke-width:1pt;stroke-opacity:1;fill:#000000;fill-opacity:0.630996"
         d="M 0.0,0.0 L 5.0,-5.0 L -12.5,0.0 L 5.0,5.0 L 0.0,0.0 z "
         id="path895" />
    </marker>
  </defs>
  <sodipodi:namedview
     id="base"
     pagecolor="#ffffff"
     bordercolor="#666666"
     borderopacity="1.0"
     inkscape:pageopacity="0.0"
     inkscape:pageshadow="2"
     inkscape:zoom="1.0040916"
     inkscape:cx="732.28778"
     inkscape:cy="470.36372"
     inkscape:document-units="mm"
     inkscape:current-layer="layer1"
     inkscape:document-rotation="0"
     showgrid="false"
     inkscape:window-width="1920"
     inkscape:window-height="1001"
     inkscape:window-x="-9"
     inkscape:window-y="-9"
     inkscape:window-maximized="1" />
  <metadata
     id="metadata5">
    <rdf:RDF>
      <cc:Work
         rdf:about="">
        <dc:format>image/svg+xml</dc:format>
        <dc:type
           rdf:resource="http://purl.org/dc/dcmitype/StillImage" />
        <dc:title />
      </cc:Work>
    </rdf:RDF>
  </metadata>
  <path
     style="opacity:0.997;fill:#e9c6af;fill-opacity:1;fill-rule:evenodd;stroke:#000000;stroke-width:1.86757;stroke-miterlimit:4;stroke-dasharray:none;stroke-opacity:1;paint-order:stroke fill markers"
     d="m 70.480546,164.06997 17.43785,-8.04105 c 3.803175,-4.68025 1.814842,-10.66196 -9.99242,-18.85017 v 0 0 0 0 l -1.62827,-0.15767 -2.21533,2.81357 z"
     id="path1493-0-5"
     sodipodi:nodetypes="cccccccccc" />
  <path
     style="opacity:0.997;fill:#e9c6af;fill-opacity:1;fill-rule:evenodd;stroke:#000000;stroke-width:1.86757;stroke-miterlimit:4;stroke-dasharray:none;stroke-opacity:1;paint-order:stroke fill markers"
     d="m 140.54535,163.05809 -17.43785,-8.04105 c 1.28713,-5.63802 -12.11349,-6.6378 9.99242,-18.85017 v 0 0 0 0 l 1.62827,-0.15767 2.21533,2.81357 c 1.45678,8.20653 3.14622,16.52938 3.60183,24.23532 z"
     id="path1493-0"
     sodipodi:nodetypes="cccccccccc" />
  <path
     style="opacity:0.997;fill:#999999;fill-opacity:0.940959;stroke:#000000;stroke-width:0.722;stroke-miterlimit:4;stroke-dasharray:none;stroke-opacity:1;paint-order:stroke fill markers"
     d="m 153.8369,14.063493 -1.4617,-0.65499 1.65889,5.04155 c 0.0711,0.005 0.55078,2.31516 0.61074,2.35537 0.0281,0.0189 0.0573,0.0411 0.0873,0.0667 0.009,0.008 0.0276,0.0242 0.0276,0.0242 0.12834,0.49679 0.0883,0.12095 0.10765,0.21076 0.0177,0.0819 0.0231,0.17857 0.0207,0.28603 -0.0113,0.49239 -0.18925,1.21097 -0.12597,1.76871 0.0441,0.38885 0.0303,2.91802 0.095,3.22375 0.0157,0.0742 -0.12908,-6.22101 -0.17881,-6.11679 -0.58219,1.21995 0.42161,5.56824 0.42161,5.56824 -0.12894,1.06088 -0.65079,2.25662 -0.97619,3.38493 v 0 l -2.4968,2.09205 -4.25674,2.27325 -13.37228,1.80635 16.38129,5.06013 -11.46432,-4.87555 7.42498,3.72933 c 1.62003,-0.14771 2.4271,0.88315 4.03934,1.14622 2.30962,0.37691 5.4276,-0.18087 7.79021,-2.59517 l 3.063,-5.73849 c 0.70145,-5.2494 0.22883,-9.19928 -1.69626,-12.33669 -1.38831,-2.26252 -3.83827,-4.09627 -5.69922,-5.71979 z"
     id="path885-2-4"
     sodipodi:nodetypes="cccsscssssscccccccccsccscc" />
  <path
     style="opacity:0.997;fill:#808080;fill-opacity:0.630996;stroke:#000000;stroke-width:0.722;stroke-miterlimit:4;stroke-dasharray:none;stroke-opacity:1;paint-order:stroke fill markers"
     d="m 64.446966,16.268696 1.068569,-1.1932 0.536673,5.28026 c -0.06287,0.0335 0.439195,2.33889 0.400788,2.40002 -0.018,0.0287 -0.03563,0.0609 -0.05262,0.0965 -0.0051,0.011 -0.01534,0.0333 -0.01534,0.0333 0.08497,0.50602 -0.03141,0.14641 -0.01255,0.23633 0.01721,0.082 0.05154,0.17253 0.09752,0.26969 0.210701,0.44517 0.665735,1.0291 0.834945,1.56431 0.117974,0.37314 1.15995,2.67774 1.22535,2.9833 0.0159,0.0742 -2.414096,-5.73496 -2.326247,-5.66 1.028311,0.87738 2.326247,5.66 2.326247,5.66 0.549562,0.91656 1.067864,1.39414 1.824317,2.29233 v 0 l 3.132122,0.89472 4.813438,0.34392 12.949777,-3.79265 -12.903574,11.28935 8.487416,-9.11951 -5.264302,6.42849 c -1.539892,0.52444 -1.857525,1.79453 -3.223114,2.69102 -1.956267,1.28431 -5.031327,2.04386 -8.172026,0.80018 l -5.133429,-3.99502 c -2.77726,-4.50944 -3.953188,-8.30972 -3.471708,-11.95903 0.347253,-2.6317 1.838759,-5.30384 2.877814,-7.54422 z"
     id="path885-2"
     sodipodi:nodetypes="cccsscssssscccccccccsccscc" />
  <g
     inkscape:label="Layer 1"
     inkscape:groupmode="layer"
     id="layer1"
     style="display:inline">
    <path
       id="path887"
       style="fill:#dbe3e2;fill-rule:evenodd;stroke-width:0.999999"
       transform="scale(0.26458333)"
       d="m 623.66602,661.58398 c -0.003,0.0384 -0.005,0.0769 -0.008,0.11524 0.009,0.0323 0.0138,0.0655 0.0234,0.0977 a 0.70422535,11.971831 0 0 0 -0.0156,-0.2129 z m -0.4043,18.3379 c -0.003,0.93164 -0.0113,1.86328 -0.0137,2.79492 -3.8e-4,0.12627 3.4e-4,0.25262 0,0.3789 a 0.70422535,11.971831 0 0 0 0.4375,-2.71484 c -0.1486,-0.1442 -0.2872,-0.30114 -0.42383,-0.45898 z" />
    <ellipse
       style="opacity:0.998;fill:#55ddff;fill-opacity:1;fill-rule:evenodd;stroke:#000000;stroke-width:0.965482;stroke-miterlimit:4;stroke-dasharray:none;stroke-opacity:1;paint-order:stroke fill markers"
       id="path10"
       cx="110.9255"
       cy="59.721939"
       rx="47.324112"
       ry="40.013519" />
  </g>
  <path
     style="opacity:0.995;fill:#26bcdf;fill-opacity:0.940959;stroke:#000000;stroke-width:0.722;stroke-miterlimit:4;stroke-dasharray:none;stroke-opacity:1;paint-order:stroke fill markers"
     d="m 100.1043,25.935616 1.101,5.7309 c 0.20491,0.0389 0.29155,0.80692 -0.23034,0.80252 -0.29477,-0.002 -0.6891,8.3e-4 -1.164519,0.0242 -1.20931,0.0596 -2.94326,0.24923 -4.89772,0.80486 -2.476998,0.70418 -5.120815,2.82883 -8.037587,3.63073 l -1.770099,-4.93765 c 1.370362,-1.76764 3.982699,-2.88538 6.14492,-4.31365 0.0071,-0.002 0.01417,-0.004 0.02124,-0.006 0.643707,-0.1746 1.255889,-0.50443 1.900297,-0.70755 2.310939,-0.72842 4.621869,-1.48516 6.932808,-1.0287 z"
     id="path1351"
     sodipodi:nodetypes="ccssscccsscc" />
  <path
     style="opacity:0.995;fill:#26bcdf;fill-opacity:0.940959;stroke:#000000;stroke-width:0.722;stroke-miterlimit:4;stroke-dasharray:none;stroke-opacity:1;paint-order:stroke fill markers"
     d="m 118.99863,29.338043 -1.101,5.7309 c -0.20491,0.0389 -0.29155,0.80692 0.23034,0.80252 0.29477,-0.002 0.6891,8.3e-4 1.16452,0.0242 1.20931,0.0596 2.94326,0.24923 4.89772,0.80486 2.477,0.70418 5.12081,2.82884 8.03759,3.63073 l 1.7701,-4.93765 c -1.37037,-1.76764 -3.9827,-2.88538 -6.14492,-4.31365 -0.007,-0.002 -0.0142,-0.004 -0.0212,-0.006 -0.64371,-0.1746 -1.25589,-0.50443 -1.9003,-0.70755 -2.31094,-0.72842 -4.62187,-1.48516 -6.93281,-1.0287 z"
     id="path1351-5"
     sodipodi:nodetypes="ccssscccsscc" />
  <circle
     style="fill:#000000;fill-opacity:1;fill-rule:evenodd;stroke-width:0.277182"
     id="path1373"
     cx="100.65897"
     cy="52.437531"
     r="5.7971139" />
  <circle
     style="fill:#000000;fill-opacity:1;fill-rule:evenodd;stroke-width:0.277182"
     id="path1373-5"
     cx="120.15836"
     cy="51.647018"
     r="5.7971139" />
  <path
     style="opacity:0.995;fill:#37abc8;fill-opacity:1;stroke:#000000;stroke-width:0.722;stroke-miterlimit:4;stroke-dasharray:none;stroke-opacity:1;paint-order:stroke fill markers"
     d="M 113.60503,80.815785 101.481,80.471045 c 3.11777,-2.35642 6.49508,-11.33063 10.28659,-13.8731 0,0 4.69474,-0.92998 10.13442,13.72614 l -1.33197,0.10505 z"
     id="path1395"
     sodipodi:nodetypes="ccsccc" />
  <path
     id="path1478"
     style="fill:#99ff55;fill-rule:evenodd;stroke:#000000;stroke-width:1.10641;stroke-miterlimit:4;stroke-dasharray:none;stroke-opacity:1"
     d="m 148.2875,178.3114 c 3.61093,26.08097 -14.51015,36.05699 -43.73414,36.3379 -24.620733,0.23666 -49.873977,-5.58422 -41.857212,-38.61455 3.199026,-13.1805 20.521819,-36.15562 43.734132,-36.3379 23.64258,-0.18566 39.01942,18.11773 41.85722,38.61455 z"
     sodipodi:nodetypes="sssss" />
  <circle
     style="fill:#f9f9f9;fill-rule:evenodd;stroke-width:0.904;stroke-miterlimit:4;stroke-dasharray:none;stroke:#000000;stroke-opacity:1"
     id="path1486"
     cx="105.12532"
     cy="177.10742"
     r="27.809158" />
  <ellipse
     style="fill:#000000;fill-rule:evenodd;stroke-width:0.299662"
     id="path1489"
     cx="104.90109"
     cy="175.39854"
     rx="13.728302"
     ry="14.325184" />
  <ellipse
     style="fill:#ffffff;fill-rule:evenodd;stroke-width:0.459539"
     id="path1491"
     cx="99.535019"
     cy="168.71846"
     rx="2.8316693"
     ry="3.0743837" />
</svg>
